<svg fill="none" height="245" viewBox="0 0 414 245" width="414" xmlns="http://www.w3.org/2000/svg">
    <path d="M3.97223 244.203V1" stroke="#F0F0F0" />
    <path d="M49.0486 244.203V1" stroke="#F0F0F0" />
    <path d="M94.1249 244.203V1" stroke="#F0F0F0" />
    <path d="M138.153 244.203V1" stroke="#F0F0F0" />
    <path d="M183.229 244.203V1" stroke="#F0F0F0" />
    <path d="M228.306 244.203V1" stroke="#F0F0F0" />
    <path d="M273.382 244.203V1" stroke="#F0F0F0" />
    <path d="M318.458 244.203V1" stroke="#F0F0F0" />
    <path d="M363.535 244.203V1" stroke="#F0F0F0" />
    <path d="M408.611 244.203V1" stroke="#F0F0F0" />
    <path d="M3.97223 1H408.611" stroke="#F0F0F0" />
    <path d="M3.97223 49.2212H408.611" stroke="#F0F0F0" />
    <path d="M3.97223 97.4424H408.611" stroke="#F0F0F0" />
    <path d="M3.97223 146.712H408.611" stroke="#F0F0F0" />
    <path d="M3.97223 194.933H408.611" stroke="#F0F0F0" />
    <path d="M3.97223 244.203H408.611" stroke="#F0F0F0" />
    <path
        d="M3.97223 165.581C3.97223 165.581 25.9863 110.022 49.0486 110.022C71.0626 110.022 71.0626 34.5452 94.1249 34.5452C116.139 34.5452 116.139 207.513 138.153 207.513C161.215 207.513 161.215 216.947 183.229 216.947C206.292 216.947 206.292 231.623 228.306 231.623C251.368 231.623 251.368 158.243 273.382 158.243C296.444 158.243 296.444 150.905 318.458 150.905C341.521 150.905 341.521 180.257 363.535 180.257C385.549 180.257 408.611 183.402 408.611 183.402"
        stroke="#E61E3A" stroke-width="2" />
    <path
        d="M0 166.468C0 167.58 0.441777 168.647 1.22814 169.433C2.01451 170.22 3.08106 170.661 4.19315 170.661C5.30524 170.661 6.37178 170.22 7.15815 169.433C7.94452 168.647 8.3863 167.58 8.3863 166.468C8.3863 165.356 7.94452 164.29 7.15815 163.503C6.37178 162.717 5.30524 162.275 4.19315 162.275C3.08106 162.275 2.01451 162.717 1.22814 163.503C0.441777 164.29 0 165.356 0 166.468Z"
        fill="#E61E3A" />
    <path
        d="M44.9851 110.597C44.9851 111.709 45.4269 112.775 46.2133 113.562C46.9996 114.348 48.0662 114.79 49.1783 114.79C50.2903 114.79 51.3569 114.348 52.1433 113.562C52.9296 112.775 53.3714 111.709 53.3714 110.597C53.3714 109.485 52.9296 108.418 52.1433 107.632C51.3569 106.845 50.2903 106.404 49.1783 106.404C48.0662 106.404 46.9996 106.845 46.2133 107.632C45.4269 108.418 44.9851 109.485 44.9851 110.597Z"
        fill="#E61E3A" />
    <path
        d="M89.9703 35.2916C89.9703 36.4037 90.412 37.4702 91.1984 38.2566C91.9848 39.043 93.0513 39.4847 94.1634 39.4847C95.2755 39.4847 96.3421 39.043 97.1284 38.2566C97.9148 37.4702 98.3566 36.4037 98.3566 35.2916C98.3566 34.1795 97.9148 33.113 97.1284 32.3266C96.3421 31.5402 95.2755 31.0984 94.1634 31.0984C93.0513 31.0984 91.9848 31.5402 91.1984 32.3266C90.412 33.113 89.9703 34.1795 89.9703 35.2916Z"
        fill="#E61E3A" />
    <path
        d="M134.955 207.765C134.955 208.877 135.397 209.943 136.184 210.73C136.97 211.516 138.036 211.958 139.149 211.958C140.261 211.958 141.327 211.516 142.114 210.73C142.9 209.943 143.342 208.877 143.342 207.765C143.342 206.653 142.9 205.586 142.114 204.8C141.327 204.013 140.261 203.571 139.149 203.571C138.036 203.571 136.97 204.013 136.184 204.8C135.397 205.586 134.955 206.653 134.955 207.765Z"
        fill="#E61E3A" />
    <path
        d="M179.941 217.481C179.941 218.594 180.382 219.66 181.169 220.446C181.955 221.233 183.022 221.675 184.134 221.675C185.246 221.675 186.312 221.233 187.099 220.446C187.885 219.66 188.327 218.594 188.327 217.481C188.327 216.369 187.885 215.303 187.099 214.516C186.312 213.73 185.246 213.288 184.134 213.288C183.022 213.288 181.955 213.73 181.169 214.516C180.382 215.303 179.941 216.369 179.941 217.481Z"
        fill="#E61E3A" />
    <path
        d="M224.926 232.057C224.926 233.169 225.367 234.235 226.154 235.022C226.94 235.808 228.007 236.25 229.119 236.25C230.231 236.25 231.297 235.808 232.084 235.022C232.87 234.235 233.312 233.169 233.312 232.057C233.312 230.945 232.87 229.878 232.084 229.092C231.297 228.305 230.231 227.863 229.119 227.863C228.007 227.863 226.94 228.305 226.154 229.092C225.367 229.878 224.926 230.945 224.926 232.057Z"
        fill="#E61E3A" />
    <path
        d="M269.911 159.181C269.911 160.293 270.353 161.359 271.139 162.146C271.925 162.932 272.992 163.374 274.104 163.374C275.216 163.374 276.283 162.932 277.069 162.146C277.855 161.359 278.297 160.293 278.297 159.181C278.297 158.069 277.855 157.002 277.069 156.216C276.283 155.429 275.216 154.987 274.104 154.987C272.992 154.987 271.925 155.429 271.139 156.216C270.353 157.002 269.911 158.069 269.911 159.181Z"
        fill="#E61E3A" />
    <path
        d="M314.896 151.893C314.896 153.005 315.338 154.072 316.124 154.858C316.91 155.644 317.977 156.086 319.089 156.086C320.201 156.086 321.268 155.644 322.054 154.858C322.84 154.072 323.282 153.005 323.282 151.893C323.282 150.781 322.84 149.714 322.054 148.928C321.268 148.142 320.201 147.7 319.089 147.7C317.977 147.7 316.91 148.142 316.124 148.928C315.338 149.714 314.896 150.781 314.896 151.893Z"
        fill="#E61E3A" />
    <path
        d="M359.881 181.043C359.881 182.156 360.323 183.222 361.109 184.008C361.896 184.795 362.962 185.237 364.074 185.237C365.186 185.237 366.253 184.795 367.039 184.008C367.826 183.222 368.267 182.156 368.267 181.043C368.267 179.931 367.826 178.865 367.039 178.078C366.253 177.292 365.186 176.85 364.074 176.85C362.962 176.85 361.896 177.292 361.109 178.078C360.323 178.865 359.881 179.931 359.881 181.043Z"
        fill="#E61E3A" />
    <path
        d="M404.866 183.473C404.866 184.585 405.308 185.651 406.094 186.438C406.881 187.224 407.947 187.666 409.059 187.666C410.171 187.666 411.238 187.224 412.024 186.438C412.811 185.651 413.253 184.585 413.253 183.473C413.253 182.361 412.811 181.294 412.024 180.508C411.238 179.721 410.171 179.279 409.059 179.279C407.947 179.279 406.881 179.721 406.094 180.508C405.308 181.294 404.866 182.361 404.866 183.473Z"
        fill="#E61E3A" />
</svg>
