<svg fill="none" height="128" viewBox="0 0 306 128" width="306" xmlns="http://www.w3.org/2000/svg">
    <defs>
        <filter color-interpolation-filters="sRGB" filterUnits="userSpaceOnUse" height="29.84"
            id="filter0_d" width="209.738" x="86.0979" y="49.625">
            <feFlood flood-opacity="0" result="BackgroundImageFix" />
            <feColorMatrix in="SourceAlpha" result="hardAlpha" type="matrix"
                values="0 0 0 0 0 0 0 0 0 0 0 0 0 0 0 0 0 0 127 0" />
            <feOffset dx="1" dy="1" />
            <feGaussianBlur stdDeviation="2" />
            <feComposite in2="hardAlpha" operator="out" />
            <feColorMatrix type="matrix" values="0 0 0 0 0 0 0 0 0 0 0 0 0 0 0 0 0 0 0.25 0" />
            <feBlend in2="BackgroundImageFix" mode="normal" result="effect1_dropShadow" />
            <feBlend in="SourceGraphic" in2="effect1_dropShadow" mode="normal" result="shape" />
        </filter>
        <linearGradient gradientUnits="userSpaceOnUse" id="paint0_linear" x1="73" x2="306" y1="64"
            y2="64">
            <stop stop-color="#E61E3A" />
            <stop offset="1" stop-color="#BE273C" />
        </linearGradient>
    </defs>
    <g filter="url(#filter0_d)">
        <path
            d="M89.0979 53.09H95.9979C98.3579 53.09 100.138 53.6 101.338 54.62C102.538 55.63 103.138 57.14 103.138 59.15C103.138 61.17 102.528 62.71 101.308 63.77C100.098 64.83 98.3279 65.36 95.9979 65.36H92.9529V74H89.0979V53.09ZM95.6079 61.91C96.8079 61.91 97.7179 61.7 98.3379 61.28C98.9579 60.85 99.2679 60.155 99.2679 59.195C99.2679 58.255 98.9679 57.58 98.3679 57.17C97.7779 56.76 96.8579 56.555 95.6079 56.555H92.9529V61.91H95.6079ZM107.194 53.09H111.079V74H107.194V53.09ZM121.154 56.555H114.674V53.09H131.534V56.555H125.084V74H121.154V56.555ZM143.556 74.465C141.596 74.465 139.856 74.01 138.336 73.1C136.826 72.19 135.651 70.91 134.811 69.26C133.971 67.6 133.551 65.69 133.551 63.53C133.551 61.38 133.971 59.48 134.811 57.83C135.651 56.18 136.826 54.9 138.336 53.99C139.846 53.08 141.586 52.625 143.556 52.625C145.026 52.625 146.371 52.875 147.591 53.375C148.811 53.875 149.861 54.595 150.741 55.535C151.631 56.465 152.311 57.575 152.781 58.865L149.136 60.185C148.676 58.955 147.966 58.005 147.006 57.335C146.046 56.665 144.896 56.33 143.556 56.33C142.316 56.33 141.236 56.62 140.316 57.2C139.396 57.78 138.686 58.615 138.186 59.705C137.686 60.785 137.436 62.06 137.436 63.53C137.436 65.01 137.686 66.295 138.186 67.385C138.686 68.475 139.396 69.31 140.316 69.89C141.236 70.47 142.316 70.76 143.556 70.76C144.896 70.76 146.046 70.425 147.006 69.755C147.966 69.085 148.676 68.135 149.136 66.905L152.781 68.21C152.311 69.5 151.631 70.615 150.741 71.555C149.861 72.495 148.811 73.215 147.591 73.715C146.371 74.215 145.026 74.465 143.556 74.465ZM156.94 53.09H160.825V61.445H169.825V53.09H173.71V74H169.825V65.03H160.825V74H156.94V53.09ZM184.03 74.3C182.25 74.3 180.905 73.785 179.995 72.755C179.085 71.715 178.63 70.28 178.63 68.45V59.21H182.365V67.52C182.365 68.65 182.57 69.52 182.98 70.13C183.39 70.74 184.11 71.045 185.14 71.045C185.98 71.045 186.63 70.81 187.09 70.34C187.56 69.86 187.88 69.195 188.05 68.345C188.23 67.485 188.32 66.4 188.32 65.09V59.21H192.04V74H188.32V72.14C187.84 72.88 187.235 73.425 186.505 73.775C185.775 74.125 184.95 74.3 184.03 74.3ZM196.994 59.21H200.744V61.265C201.174 60.545 201.754 59.975 202.484 59.555C203.214 59.125 203.964 58.91 204.734 58.91C205.214 58.91 205.674 58.975 206.114 59.105C206.564 59.235 207.034 59.45 207.524 59.75L205.724 63.11C205.484 62.98 205.189 62.87 204.839 62.78C204.499 62.68 204.169 62.63 203.849 62.63C203.209 62.63 202.634 62.8 202.124 63.14C201.624 63.48 201.254 63.995 201.014 64.685C200.914 64.995 200.839 65.365 200.789 65.795C200.749 66.225 200.729 66.84 200.729 67.64V74H196.994V59.21ZM216.886 74.3C215.246 74.3 213.881 73.95 212.791 73.25C211.701 72.55 210.896 71.63 210.376 70.49C209.856 69.34 209.596 68.075 209.596 66.695C209.596 65.335 209.846 64.065 210.346 62.885C210.856 61.705 211.641 60.75 212.701 60.02C213.761 59.28 215.076 58.91 216.646 58.91C218.126 58.91 219.381 59.245 220.411 59.915C221.441 60.575 222.211 61.475 222.721 62.615C223.241 63.755 223.501 65.04 223.501 66.47C223.501 66.85 223.471 67.31 223.411 67.85H213.316C213.396 68.81 213.741 69.565 214.351 70.115C214.961 70.655 215.816 70.925 216.916 70.925C218.326 70.925 219.486 70.4 220.396 69.35L222.976 71.63C222.166 72.52 221.261 73.19 220.261 73.64C219.261 74.08 218.136 74.3 216.886 74.3ZM219.946 65.105V65.045C219.946 64.485 219.811 63.975 219.541 63.515C219.271 63.055 218.891 62.69 218.401 62.42C217.911 62.15 217.351 62.015 216.721 62.015C215.671 62.015 214.856 62.315 214.276 62.915C213.706 63.515 213.371 64.245 213.271 65.105H219.946ZM232.746 56.555H226.266V53.09H243.126V56.555H236.676V74H232.746V56.555ZM246.535 53.09H250.285V61.115C250.755 60.355 251.37 59.8 252.13 59.45C252.89 59.09 253.715 58.91 254.605 58.91C255.715 58.91 256.67 59.125 257.47 59.555C258.28 59.985 258.895 60.605 259.315 61.415C259.745 62.225 259.96 63.2 259.96 64.34V74H256.225V65.72C256.225 64.49 256 63.59 255.55 63.02C255.11 62.44 254.425 62.15 253.495 62.15C252.415 62.15 251.61 62.535 251.08 63.305C250.55 64.075 250.285 65.275 250.285 66.905V74H246.535V53.09ZM273.959 72.245C273.019 73.615 271.609 74.3 269.729 74.3C268.649 74.3 267.679 74.1 266.819 73.7C265.969 73.29 265.299 72.715 264.809 71.975C264.329 71.235 264.089 70.385 264.089 69.425C264.089 68.605 264.259 67.89 264.599 67.28C264.939 66.66 265.414 66.175 266.024 65.825C266.944 65.285 268.149 65.015 269.639 65.015H273.899V64.655C273.899 63.875 273.639 63.265 273.119 62.825C272.599 62.375 271.849 62.15 270.869 62.15C270.179 62.15 269.519 62.29 268.889 62.57C268.269 62.84 267.644 63.305 267.014 63.965L264.329 61.7C265.179 60.76 266.194 60.06 267.374 59.6C268.554 59.14 269.809 58.91 271.139 58.91C272.489 58.91 273.649 59.14 274.619 59.6C275.589 60.06 276.329 60.725 276.839 61.595C277.359 62.455 277.619 63.475 277.619 64.655V74H274.199L273.959 72.245ZM267.824 69.44C267.824 70 268.044 70.45 268.484 70.79C268.924 71.12 269.519 71.285 270.269 71.285C270.929 71.285 271.534 71.14 272.084 70.85C272.644 70.56 273.084 70.16 273.404 69.65C273.734 69.14 273.899 68.565 273.899 67.925V67.79H270.179C269.409 67.79 268.829 67.925 268.439 68.195C268.029 68.485 267.824 68.9 267.824 69.44ZM288.316 74.3C287.006 74.3 285.931 73.93 285.091 73.19C284.261 72.44 283.846 71.265 283.846 69.665V62.105H281.146V59.21H283.846V55.775L287.626 53.735V59.21H290.836V62.105H287.626V68.63C287.626 69.53 287.751 70.19 288.001 70.61C288.251 71.03 288.696 71.24 289.336 71.24C289.736 71.24 290.236 71.155 290.836 70.985V73.85C290.026 74.15 289.186 74.3 288.316 74.3Z"
            fill="url(#paint0_linear)" />
    </g>
    <line stroke="#E61E3A" stroke-linecap="round" stroke-width="5" x1="32.6565" x2="32.6565"
        y1="104.5" y2="23.5" />
    <line stroke="#E61E3A" stroke-linecap="round" stroke-width="5" x1="40.3435" x2="40.3435"
        y1="104.5" y2="23.5" />
    <line stroke="#E61E3A" stroke-linecap="round" stroke-width="5" x1="47.8333" x2="47.8333"
        y1="91.7832" y2="36.2168" />
    <line stroke="#E61E3A" stroke-linecap="round" stroke-width="5" x1="55.3232" x2="55.3232"
        y1="81.6529" y2="46.3471" />
    <line stroke="#E61E3A" stroke-linecap="round" stroke-width="5" x1="63.0101" x2="63.0101"
        y1="69.1516" y2="59.0639" />
    <line stroke="#E61E3A" stroke-linecap="round" stroke-width="5" x1="70.5" x2="70.5" y1="64.1942"
        y2="64.0213" />
    <line stroke="#E61E3A" stroke-linecap="round" stroke-width="5" x1="2.5" x2="2.5" y1="64.1942"
        y2="64.0213" />
    <line stroke="#E61E3A" stroke-linecap="round" stroke-width="5" x1="9.98987" x2="9.98987"
        y1="69.1516" y2="59.0639" />
    <line stroke="#E61E3A" stroke-linecap="round" stroke-width="5" x1="17.6768" x2="17.6768"
        y1="81.6529" y2="46.3471" />
    <line stroke="#E61E3A" stroke-linecap="round" stroke-width="5" x1="25.1667" x2="25.1667"
        y1="91.7832" y2="36.2168" />
</svg>
