<svg fill="none" height="36" viewBox="0 0 36 36" width="36" xmlns="http://www.w3.org/2000/svg">
    <path
        d="M19.5 4.5C17.8425 4.5 16.5 5.8425 16.5 7.5V12V21.8115C15.5886 21.2822 14.5539 21.0023 13.5 21C11.9087 21 10.3826 21.6321 9.25736 22.7574C8.13214 23.8826 7.5 25.4087 7.5 27C7.5 28.5913 8.13214 30.1174 9.25736 31.2426C10.3826 32.3679 11.9087 33 13.5 33C15.0913 33 16.6174 32.3679 17.7426 31.2426C18.8679 30.1174 19.5 28.5913 19.5 27V12H24.75C26.8215 12 28.5 10.3215 28.5 8.25C28.5 6.1785 26.8215 4.5 24.75 4.5H19.5Z"
        fill="white" />
</svg>
